<?xml version="1.0" encoding="iso-8859-1"?>
<!DOCTYPE svg PUBLIC "-//W3C//DTD SVG 1.1//EN" "http://www.w3.org/Graphics/SVG/1.1/DTD/svg11.dtd">
<svg xmlns="http://www.w3.org/2000/svg" xmlns:xlink="http://www.w3.org/1999/xlink" version="1.1" viewBox="0 0 289.887 289.887" enable-background="new 0 0 289.887 289.887" width="512px" height="512px">
  <g>
    <path d="m283.887,211.215h-4.972v-112.773-11.619c2.992-1.96 4.971-5.336 4.971-9.179 0-6.059-4.912-10.972-10.971-10.972-6.06,0-10.972,4.912-10.972,10.972 0,3.843 1.98,7.22 4.972,9.179v5.619h-115.972v-5.619c2.992-1.959 4.972-5.336 4.972-9.179 0-6.059-4.912-10.972-10.972-10.972s-10.972,4.912-10.972,10.972c0,3.843 1.98,7.22 4.972,9.179v5.619h-115.971v-5.619c2.992-1.959 4.972-5.336 4.972-9.179 0-6.059-4.912-10.972-10.972-10.972-6.059,0-10.972,4.912-10.972,10.972 0,3.843 1.979,7.22 4.971,9.179v11.619 112.773h-4.971c-3.313,0-6,2.687-6,6s2.687,6 6,6h10.972 255.943 10.972c3.313,0 6-2.687 6-6s-2.687-6-6-6zm-220.951-106.773h32.004v105.404c0,0.472 0.06,0.929 0.163,1.369h-32.33c0.103-0.44 0.163-0.897 0.163-1.369v-105.404zm44.003,105.404v-105.404h32.004v105.404c0,0.472 0.06,0.929 0.163,1.369h-32.33c0.103-0.441 0.163-0.898 0.163-1.369zm44.004,0v-105.404h32.004v105.404c0,0.472 0.06,0.929 0.163,1.369h-32.33c0.103-0.441 0.163-0.898 0.163-1.369zm44.004,0v-105.404h32.004v105.404c0,0.472 0.06,0.929 0.163,1.369h-32.33c0.103-0.441 0.163-0.898 0.163-1.369zm-171.975-105.404h27.964v105.404c0,0.472 0.06,0.929 0.163,1.369h-28.127v-106.773zm215.816,106.773c0.103-0.44 0.163-0.897 0.163-1.369v-105.404h27.964v106.773h-28.127z" fill="#FFFFFF"/>
  </g>
</svg>
