<?xml version="1.0" encoding="utf-8"?>
<!-- Generator: Adobe Illustrator 18.0.0, SVG Export Plug-In . SVG Version: 6.00 Build 0)  -->
<!DOCTYPE svg PUBLIC "-//W3C//DTD SVG 1.1//EN" "http://www.w3.org/Graphics/SVG/1.1/DTD/svg11.dtd">
<svg version="1.1" id="Слой_1" xmlns="http://www.w3.org/2000/svg" xmlns:xlink="http://www.w3.org/1999/xlink" x="0px" y="0px"
	 viewBox="0 0 1366 768" enable-background="new 0 0 1366 768" xml:space="preserve">
<g id="Layer_1">
</g>
<g id="Layer_2">
	<g>
		<rect y="559.4" fill="#EE3524" width="309.2" height="65.2"/>
		<g>
			<g>
				<path fill="#EE3524" d="M554.7,313.8c-2.2-9.3-3.3-17-20.8-17s-19.7,6-23,14.8c-3.3,8.8-48.2,140.9-48.2,140.9h30.1l12.1-30.7
					h51.5l11.5,31.2h33.4C600.8,453.1,556.9,322.6,554.7,313.8z M512.5,394.4l18.6-63l18.1,63H512.5z"/>
			</g>
		</g>
		<rect x="609" y="296.3" fill="#EE3524" width="30.1" height="156.8"/>
		<path fill="#EE3524" d="M656.1,347.3h12.1c0,0,0-8.8,0-15.9s2.2-36.7,31.8-36.7c29.6,0,30.7,0,30.7,0l-4.4,22.5c0,0-4.4,0-9.9,0
			c-5.5,0-17-0.5-17,9.3c0,9.9,0,20.8,0,20.8h28v22.5h-29.1v81.7h-30.1v-80.6h-12.1V347.3z"/>
		<g>
			<g>
				<path fill="#EE3524" d="M819.5,408.7v-43.9c0-20.8-27.4-25.8-37.8-25.8c-11,0-37.3,3.8-37.3,3.8l4.9,22.5c0,0,11-3.3,21.4-3.3
					c10.4,0,22.5,4.9,22.5,14.8c0,10.4-7.7,6.6-14.3,6c-15.9-2.2-45.5,8.2-45.5,37.3s28,33.4,36.7,33.4c18.1,0,29.6-8.8,29.6-8.8
					l10.4,8.8l19.2-14.8C821.1,433.9,819.5,415.8,819.5,408.7z M791,427.9c0,0-6.6,3.3-13.2,3.3s-14.8-4.9-14.8-14.3
					c0-9.3,4.9-14.3,16.4-14.3s12.1,1.1,12.1,1.1v24.1H791z"/>
			</g>
		</g>
		<g>
			<g>
				<path fill="#EE3524" d="M1136.9,408.7v-43.9c0-20.8-27.4-25.8-37.8-25.8c-11,0-37.3,3.8-37.3,3.8l4.9,22.5c0,0,11-3.3,21.4-3.3
					s22.5,4.9,22.5,14.8c0,10.4-7.7,6.6-14.3,6c-15.9-2.2-45.5,8.2-45.5,37.3s28,33.4,36.7,33.4c18.1,0,29.6-8.8,29.6-8.8l10.4,8.8
					l19.2-14.8C1138,433.9,1136.9,415.8,1136.9,408.7z M1107.8,427.9c0,0-6.6,3.3-13.2,3.3c-6.6,0-14.8-4.9-14.8-14.3
					c0-9.3,4.9-14.3,16.4-14.3c11.5,0,12.1,1.1,12.1,1.1v24.1H1107.8z"/>
			</g>
		</g>
		<path fill="#EE3524" d="M859,397.2c0,10.4,8.8,19.2,19.2,19.2s19.2-8.8,19.2-19.2c0-10.4-8.8-19.2-19.2-19.2
			C867.7,378.5,859,386.7,859,397.2z"/>
		<g>
			<g>
				<path fill="#EE3524" d="M1010.2,369.2c17-8.2,19.7-21.4,19.7-31.2c0-41.1-36.7-42.8-48.2-42.8c-11,0-47.1,0-47.1,0v157.9
					c0,0,25.8,0,50.4,0c24.7,0,52.1-12.1,52.1-44.9C1037.1,375.8,1010.2,369.2,1010.2,369.2z M964.8,323.2c0,0,15.9,0,21.9,0
					s15.3,6,15.3,16.4c0,10.4-7.7,17-15.9,17c-8.2,0-21.4,0-21.4,0L964.8,323.2L964.8,323.2z M980.1,427.9c-9.9,0-15.3,0-15.3,0
					v-45.5c0,0,14.3,0,18.1,0c3.8,0,23,2.7,23,21.9C1005.9,424,990,427.9,980.1,427.9z"/>
			</g>
		</g>
		<path fill="#EE3524" d="M1160.4,349.5c0,0,2.7-9.3,46.6-9.3c43.9,0,43.3,26.3,43.3,26.3v86.6h-29.6c0,0,0-73.5,0-75.6s0-11-7.1-11
			c-7.1,0-23.6,0-23.6,0v86.6H1161V349.5H1160.4z"/>
		<path fill="#EE3524" d="M1275,296.3h28.5v86.6h7.1c0,0,7.7,0.5,11-11c3.8-11,12.6-30.7,25.8-30.7c13.7,0,14.8,0,14.8,0v16.4
			c0,0-12.1,8.2-15.3,17.5c-3.8,9.3-5.5,15.9-13.7,17c0,0,9.9,8.2,15.3,18.1c5.5,10.4,14.8,32.9,16.4,34v6.6h-28
			c0,0-18.1-45.5-26.9-44.9h-7.1v44.9h-29.1V296.3H1275z"/>
		<g>
			<g>
				<path fill="#EE3524" d="M296.6,434.4c-3.3-9.9-82.8-225.8-93.2-252.2c-10.4-26.3-23.6-38.9-47.7-38.9c-37.8,0-48.2,34-48.2,34
					S21.4,412,15.9,427.9s-2.2,16.4,2.7,19.2c4.9,2.7,34,14.3,40.6,16.4c7.1,2.2,7.7,4.4,13.2-8.8s19.2-52.1,19.2-52.1h125
					c0,0,19.2,46.6,20.8,53.7c1.6,7.7,3.3,9.9,8.8,7.7c5.5-2.2,39.5-13.7,43.3-15.9C294.4,447,299.8,444.3,296.6,434.4z
					 M111.8,345.6l43.3-125.5l42.2,125.5H111.8z"/>
			</g>
		</g>
	</g>
</g>
</svg>
