<?xml version="1.0" encoding="utf-8"?>
<!-- Generator: Adobe Illustrator 18.0.0, SVG Export Plug-In . SVG Version: 6.00 Build 0)  -->
<!DOCTYPE svg PUBLIC "-//W3C//DTD SVG 1.1//EN" "http://www.w3.org/Graphics/SVG/1.1/DTD/svg11.dtd">
<svg version="1.1" id="Слой_1" xmlns="http://www.w3.org/2000/svg" xmlns:xlink="http://www.w3.org/1999/xlink" x="0px" y="0px"
	 viewBox="0 0 1366 768" enable-background="new 0 0 1366 768" xml:space="preserve">
<polygon fill="#FAB51D" points="939.9,768 959.8,767.7 979.3,766.3 998.6,763.8 1017.6,760.4 1036,756.1 1054.4,751 1072.2,744.8 
	1089.8,738 1106.8,730 1123.5,721.8 1139.4,712.5 1155.2,702.6 1170.3,691.8 1184.7,680.2 1198.6,668.3 1211.9,655.5 1224.9,642.2 
	1236.8,628.1 1248.2,613.6 1258.9,598.6 1269.1,583 1278.5,566.9 1286.7,550.1 1294.6,533.2 1301.4,515.6 1307.4,497.7 
	1312.8,479.6 1317,460.9 1320.4,441.9 1322.7,422.7 1324.1,403.1 1324.7,383.3 1324.1,363.7 1322.7,344.2 1320.4,324.9 1317,306.2 
	1312.8,287.8 1307.4,269.7 1301.4,251.8 1294.6,234.3 1286.7,217.3 1278.5,200.9 1269.1,185 1258.9,169.1 1248.2,154.1 
	1236.8,139.7 1224.9,125.8 1211.9,112.5 1198.6,99.7 1184.7,87.8 1170.3,76.2 1155.2,65.4 1139.4,55.5 1123.5,46.5 1106.8,38 
	1089.8,30.3 1072.2,23.2 1054.4,17.3 1036,12.2 1017.6,7.6 998.6,4.5 979.3,2 959.8,0.6 939.9,0 920.1,0.6 900.6,2 881.6,4.5 
	862.6,7.6 844.2,12.2 825.8,17.3 807.9,23.2 790.7,30.3 773.7,38 757.2,46.5 741.1,55.5 725.5,65.4 710.5,76.2 696,87.8 682.2,99.7 
	668.8,112.5 656.1,125.8 643.9,139.7 632.6,154.1 622.1,169.1 612.2,185 602.8,200.9 594.3,217.3 586.7,234.3 579.9,251.8 
	573.9,269.7 568.6,287.8 564.3,306.2 560.9,324.9 558.6,344.2 557.2,363.7 556.7,383.3 557.2,403.1 558.6,422.7 560.9,441.9 
	564.3,460.9 568.6,479.6 573.9,497.7 579.9,515.6 586.7,533.2 594.3,550.1 602.8,566.9 612.2,583 622.1,598.6 632.6,613.6 
	643.9,628.1 656.1,642.2 668.8,655.5 682.2,668.3 696,680.2 710.5,691.8 725.5,702.6 741.1,712.5 757.2,721.8 773.7,730 790.7,738 
	807.9,744.8 825.8,751 844.2,756.1 862.6,760.4 881.6,763.8 900.6,766.3 920.1,767.7 939.9,768 "/>
<polygon fill="#E40520" points="426.1,768 445.9,767.7 465.4,766.3 484.7,763.8 503.4,760.4 522.1,756.1 540.2,751 558.1,744.8 
	575.6,738 592.3,730 609.1,721.8 624.9,712.5 640.5,702.6 655.5,691.8 670,680.2 683.8,668.3 697.2,655.5 709.9,642.2 722.1,628.1 
	733.4,613.6 744.2,598.6 754.1,583 763.2,566.9 771.7,550.1 779.3,533.2 786.4,515.6 792.4,497.7 797.4,479.6 801.7,460.9 
	805.1,441.9 807.6,422.7 809.1,403.1 809.3,383.3 809.1,363.7 807.6,344.2 805.1,324.9 801.7,306.2 797.4,287.8 792.4,269.7 
	786.4,251.8 779.3,234.3 771.7,217.3 763.2,200.9 754.1,185 744.2,169.1 733.4,154.1 722.1,139.7 709.9,125.8 697.2,112.5 
	683.8,99.7 670,87.8 655.5,76.2 640.5,65.4 624.9,55.5 609.1,46.5 592.3,38 575.6,30.3 558.1,23.2 540.2,17.3 522.1,12.2 503.4,7.6 
	484.7,4.5 465.4,2 445.9,0.6 426.1,0 406.2,0.6 386.7,2 367.7,4.5 348.4,7.6 330,12.2 311.6,17.3 293.8,23.2 276.5,30.3 259.2,38 
	242.8,46.5 226.6,55.5 211,65.4 196,76.2 181.3,87.8 167.4,99.7 154.1,112.5 141.3,125.8 129.2,139.7 117.8,154.1 107.1,169.1 
	97.2,185 87.8,200.9 79.3,217.3 71.7,234.3 64.6,251.8 58.6,269.7 53.5,287.8 49,306.2 45.9,324.9 43.3,344.2 41.9,363.7 
	41.3,383.3 41.9,403.1 43.3,422.7 45.9,441.9 49,460.9 53.5,479.6 58.6,497.7 64.6,515.6 71.7,533.2 79.3,550.1 87.8,566.9 
	97.2,583 107.1,598.6 117.8,613.6 129.2,628.1 141.3,642.2 154.1,655.5 167.4,668.3 181.3,680.2 196,691.8 211,702.6 226.6,712.5 
	242.8,721.8 259.2,730 276.5,738 293.8,744.8 311.6,751 330,756.1 348.4,760.4 367.7,763.8 386.7,766.3 406.2,767.7 426.1,768 "/>
<polygon fill="#FAB51D" points="638,147.3 842.2,147.3 842.2,126.3 655.8,126.3 638,147.3 "/>
<polygon fill="#FAB51D" points="607.6,193.8 842.2,193.8 842.2,172.8 619.8,172.8 607.6,193.8 "/>
<polygon fill="#FAB51D" points="584.7,239.9 842.2,239.9 842.2,219 593.8,219 584.7,239.9 "/>
<polygon fill="#FAB51D" points="569.1,286.4 842.2,286.4 842.2,265.4 575.6,265.4 569.1,286.4 "/>
<polygon fill="#FAB51D" points="578.2,510.5 842.8,510.5 842.8,489.5 571.7,489.5 578.2,510.5 "/>
<polygon fill="#FAB51D" points="597.7,556.9 842.8,556.9 842.8,536 587.8,536 597.7,556.9 "/>
<polygon fill="#FAB51D" points="625.2,603.1 842.8,603.1 842.8,582.2 612.2,582.2 625.2,603.1 "/>
<polygon fill="#FAB51D" points="662.9,649.6 842.8,649.6 842.8,628.3 644.8,628.3 662.9,649.6 "/>
<polygon fill="#FAB51D" points="559.8,332.6 842.2,332.6 842.2,311.6 563.7,311.6 559.8,332.6 "/>
<polygon fill="#FAB51D" points="732,464.3 839.7,464.3 839.7,443.3 735.7,443.3 732,464.3 "/>
<polygon fill="#FAB51D" points="740.5,417.9 839.7,417.9 839.7,396.9 744.2,396.9 740.5,417.9 "/>
<polygon fill="#FAB51D" points="552.7,396.9 580.7,396.9 580.7,417.9 554.1,417.9 552.7,396.9 "/>
<polygon fill="#FFFFFF" points="500.6,371.7 498.6,371.7 496.9,371.4 495.2,371.1 493.5,370.8 492.1,370.5 490.4,370.3 488.7,370 
	486.7,369.7 485,369.4 483,369.4 480.4,369.1 478.2,369.1 475.3,369.1 472.5,369.1 469.1,369.4 465.1,369.7 462.6,370.3 
	460.3,370.5 458.1,371.4 456.1,372 454.1,373.1 452.7,373.9 451.3,375.4 450.1,376.5 449.3,377.9 448.7,379.3 448.4,381 
	448.4,382.4 448.7,384.1 449.3,385.8 450.4,387.5 451.6,389.2 454.1,391.5 457.2,393.5 460.9,395.2 464.9,396.6 469.1,398 
	473.4,399.4 477.6,400.9 481.6,402.6 485.5,404.8 489.2,407.7 492.3,410.8 495.2,414.7 497.2,419.8 498.6,425.5 499.1,432.6 
	498.6,440.8 497.7,446.7 496,452.1 494,456.9 491.5,461.5 488.4,465.2 485,468.3 481.6,471.1 477.3,473.7 473.4,475.6 469.1,477.3 
	464.6,478.5 460.1,479.6 455.8,480.5 451.3,480.7 447,481 443.1,481.3 437.7,481.3 432.3,481 427.8,481 423.5,481 419.5,480.7 
	416.1,480.5 413,480.2 410.2,479.9 407.4,479.6 404.8,479 402.5,478.8 400.3,478.2 398,477.6 396,476.8 393.8,475.9 391.8,475.1 
	397.4,446.5 398.6,446.7 400,447.3 402,447.9 404.2,448.2 406.5,448.7 409.1,449.3 411.9,449.9 415,450.4 418.1,451 421.5,451.6 
	425.2,451.8 428.6,452.4 432.6,452.4 436.3,452.4 439.9,452.4 443.6,452.4 447.6,451.6 450.4,450.7 452.7,449.3 454.7,447.3 
	455.8,445.6 456.9,443.3 457.5,441.4 458.1,439.4 458.4,435.7 457.2,432.6 455,429.8 451.8,427.8 447.9,425.8 443.3,423.8 
	438.2,422.1 433.1,419.8 428,417.6 423.2,414.7 418.7,411.3 414.4,407.4 411.3,402.6 408.8,396.6 407.6,389.8 407.9,381.3 
	408.5,376.5 409.3,371.7 410.8,367.1 412.2,362.9 414.4,359.2 416.7,355.8 419.3,352.4 422.7,349.6 426.3,347.3 430.6,345 
	435.1,343.1 440.5,341.6 446.2,340.5 452.7,339.7 459.5,339.1 467.1,339.1 471.9,339.1 476.5,339.1 480.4,339.4 484.1,339.4 
	487.2,339.7 490.4,339.9 492.9,340.2 495.2,340.5 497.4,340.8 499.1,341.1 500.8,341.4 502.5,341.6 503.7,341.9 504.8,341.9 
	505.9,342.2 507.1,342.5 500.6,371.7 "/>
<polyline fill="none" stroke="#FFFFFF" stroke-width="0.216" stroke-miterlimit="2.6131" points="500.6,371.7 500.6,371.7 
	498.6,371.7 496.9,371.4 495.2,371.1 493.5,370.8 492.1,370.5 490.4,370.3 488.7,370 486.7,369.7 485,369.4 483,369.4 480.4,369.1 
	478.2,369.1 475.3,369.1 472.5,369.1 469.1,369.4 465.1,369.7 465.1,369.7 462.6,370.3 460.3,370.5 458.1,371.4 456.1,372 
	454.1,373.1 452.7,373.9 451.3,375.4 450.1,376.5 449.3,377.9 448.7,379.3 448.4,381 448.4,382.4 448.7,384.1 449.3,385.8 
	450.4,387.5 451.6,389.2 451.6,389.2 454.1,391.5 457.2,393.5 460.9,395.2 464.9,396.6 469.1,398 473.4,399.4 477.6,400.9 
	481.6,402.6 485.5,404.8 489.2,407.7 492.3,410.8 495.2,414.7 497.2,419.8 498.6,425.5 499.1,432.6 498.6,440.8 498.6,440.8 
	497.7,446.7 496,452.1 494,456.9 491.5,461.5 488.4,465.2 485,468.3 481.6,471.1 477.3,473.7 473.4,475.6 469.1,477.3 464.6,478.5 
	460.1,479.6 455.8,480.5 451.3,480.7 447,481 443.1,481.3 443.1,481.3 437.7,481.3 432.3,481 427.8,481 423.5,481 419.5,480.7 
	416.1,480.5 413,480.2 410.2,479.9 407.4,479.6 404.8,479 402.5,478.8 400.3,478.2 398,477.6 396,476.8 393.8,475.9 391.8,475.1 
	397.4,446.5 397.4,446.5 398.6,446.7 400,447.3 402,447.9 404.2,448.2 406.5,448.7 409.1,449.3 411.9,449.9 415,450.4 418.1,451 
	421.5,451.6 425.2,451.8 428.6,452.4 432.6,452.4 436.3,452.4 439.9,452.4 443.6,452.4 443.6,452.4 447.6,451.6 450.4,450.7 
	452.7,449.3 454.7,447.3 455.8,445.6 456.9,443.3 457.5,441.4 458.1,439.4 458.1,439.4 458.4,435.7 457.2,432.6 455,429.8 
	451.8,427.8 447.9,425.8 443.3,423.8 438.2,422.1 433.1,419.8 428,417.6 423.2,414.7 418.7,411.3 414.4,407.4 411.3,402.6 
	408.8,396.6 407.6,389.8 407.9,381.3 407.9,381.3 408.5,376.5 409.3,371.7 410.8,367.1 412.2,362.9 414.4,359.2 416.7,355.8 
	419.3,352.4 422.7,349.6 426.3,347.3 430.6,345 435.1,343.1 440.5,341.6 446.2,340.5 452.7,339.7 459.5,339.1 467.1,339.1 
	467.1,339.1 471.9,339.1 476.5,339.1 480.4,339.4 484.1,339.4 487.2,339.7 490.4,339.9 492.9,340.2 495.2,340.5 497.4,340.8 
	499.1,341.1 500.8,341.4 502.5,341.6 503.7,341.9 504.8,341.9 505.9,342.2 507.1,342.5 500.6,371.7 "/>
<polygon fill="#FFFFFF" points="531.2,310.5 567.1,310.5 561.8,341.6 583.3,341.6 578.7,371.1 555.8,370.5 543.6,442.8 543.3,445.3 
	543.9,447.6 545.3,449.3 547,450.7 549.3,451.6 551.8,452.4 554.7,452.7 557.8,453 560.6,453 563.5,452.7 565.7,452.4 567.7,451.8 
	569.4,451.3 570.5,451 571.4,450.7 571.7,450.4 567.1,474.5 566.3,475.1 565.2,475.6 564.3,476.2 563.5,476.8 562.6,477.1 
	561.5,477.6 560.3,477.9 559.2,478.2 557.8,478.8 556.7,479 555,479.3 553.5,479.6 551.8,479.6 549.9,479.9 547.9,480.2 
	545.6,480.5 535.7,480.5 530.6,480.2 526.1,479.6 521.8,478.8 518.4,477.9 515.3,476.8 513,475.4 510.8,473.9 509.1,472.2 
	507.6,470.5 506.8,468.3 506.2,466 505.9,463.5 505.7,460.9 505.7,458.1 505.9,455 506.5,451.8 531.2,310.5 "/>
<polyline fill="none" stroke="#FFFFFF" stroke-width="0.216" stroke-miterlimit="2.6131" points="531.2,310.5 567.1,310.5 
	561.8,341.6 583.3,341.6 578.7,371.1 555.8,370.5 543.6,442.8 543.6,442.8 543.3,445.3 543.9,447.6 545.3,449.3 547,450.7 
	549.3,451.6 551.8,452.4 554.7,452.7 557.8,453 557.8,453 560.6,453 563.5,452.7 565.7,452.4 567.7,451.8 569.4,451.3 570.5,451 
	571.4,450.7 571.7,450.4 567.1,474.5 567.1,474.5 566.3,475.1 565.2,475.6 564.3,476.2 563.5,476.8 562.6,477.1 561.5,477.6 
	560.3,477.9 559.2,478.2 557.8,478.8 556.7,479 555,479.3 553.5,479.6 551.8,479.6 549.9,479.9 547.9,480.2 545.6,480.5 
	535.7,480.5 535.7,480.5 530.6,480.2 526.1,479.6 521.8,478.8 518.4,477.9 515.3,476.8 513,475.4 510.8,473.9 509.1,472.2 
	507.6,470.5 506.8,468.3 506.2,466 505.9,463.5 505.7,460.9 505.7,458.1 505.9,455 506.5,451.8 531.2,310.5 "/>
<polygon fill="#FFFFFF" points="612.2,419.8 611.6,422.1 611.6,424.4 611.9,426.9 612.2,429.5 613.3,431.7 614.2,434.3 615.6,436.6 
	617.3,438.8 619,441.1 621,443.1 622.9,444.8 625.5,446.5 627.8,447.9 630.3,449 632.9,449.9 635.4,450.4 638.8,451 642.2,451.3 
	645.6,451.8 648.7,452.1 652.1,452.1 655.8,452.1 659.2,452.1 662.6,451.8 666,451.3 669.7,450.7 673.1,449.9 676.8,448.7 
	680.5,447.3 684.1,445.6 687.8,443.6 691.5,441.4 686.4,473.4 684.1,474.2 682.2,475.4 680.2,476.2 678.2,476.8 676.2,477.6 
	674.2,478.2 672,478.8 669.7,479 667.4,479.6 664.9,479.6 662.3,479.9 659.2,480.2 655.8,480.5 652.4,480.5 648.4,480.5 
	643.9,480.5 637.7,480.5 631.2,479.6 624.6,478.8 618.1,477.3 611.9,475.4 605.9,472.8 600,469.7 594.6,466 589.5,461.5 585,456.1 
	581.3,450.1 578.2,443.3 575.9,435.7 574.5,426.9 574.2,417.6 574.8,406.8 575.3,402.6 576.2,397.7 577.3,392.9 578.7,387.3 
	580.4,381.9 583,376.2 585.8,370.5 589.5,365.2 593.8,359.8 598.6,355 604.5,350.7 610.8,346.7 618.4,343.3 626.9,341.1 
	636.3,339.7 646.7,339.1 651.6,339.1 656.9,339.7 662.3,340.5 667.7,341.9 672.8,343.9 677.9,346.2 682.4,349.3 686.7,353 
	690.6,357.2 694,362.6 696.6,368.6 698.3,375.4 699.4,383 699.4,391.8 698.6,401.7 696.6,412.8 696,420.4 601.4,420.4 607.6,394.9 
	664.3,394.9 664.6,391.8 664.3,388.7 664,385.8 663.7,383.3 662.6,380.7 661.8,378.5 660.6,376.5 659.2,374.8 657.8,373.4 
	656.1,372 654.1,370.8 652.1,369.7 650.1,368.8 647.9,368.6 645.6,368 643.3,367.7 641.1,368 638.5,368.3 636.3,368.8 634.3,369.7 
	632,370.5 630,372 628,373.4 626.3,374.8 624.6,376.5 623.2,378.5 621.8,380.7 620.7,382.7 619.5,385.3 618.4,387.8 617.8,390.4 
	617.3,393.2 612.2,419.8 "/>
<polyline fill="none" stroke="#FFFFFF" stroke-width="0.216" stroke-miterlimit="2.6131" points="612.2,419.8 612.2,419.8 
	611.6,422.1 611.6,424.4 611.9,426.9 612.2,429.5 613.3,431.7 614.2,434.3 615.6,436.6 617.3,438.8 619,441.1 621,443.1 
	622.9,444.8 625.5,446.5 627.8,447.9 630.3,449 632.9,449.9 635.4,450.4 635.4,450.4 638.8,451 642.2,451.3 645.6,451.8 
	648.7,452.1 652.1,452.1 655.8,452.1 659.2,452.1 662.6,451.8 666,451.3 669.7,450.7 673.1,449.9 676.8,448.7 680.5,447.3 
	684.1,445.6 687.8,443.6 691.5,441.4 686.4,473.4 686.4,473.4 684.1,474.2 682.2,475.4 680.2,476.2 678.2,476.8 676.2,477.6 
	674.2,478.2 672,478.8 669.7,479 667.4,479.6 664.9,479.6 662.3,479.9 659.2,480.2 655.8,480.5 652.4,480.5 648.4,480.5 
	643.9,480.5 643.9,480.5 637.7,480.5 631.2,479.6 624.6,478.8 618.1,477.3 611.9,475.4 605.9,472.8 600,469.7 594.6,466 
	589.5,461.5 585,456.1 581.3,450.1 578.2,443.3 575.9,435.7 574.5,426.9 574.2,417.6 574.8,406.8 574.8,406.8 575.3,402.6 
	576.2,397.7 577.3,392.9 578.7,387.3 580.4,381.9 583,376.2 585.8,370.5 589.5,365.2 593.8,359.8 598.6,355 604.5,350.7 
	610.8,346.7 618.4,343.3 626.9,341.1 636.3,339.7 646.7,339.1 646.7,339.1 651.6,339.1 656.9,339.7 662.3,340.5 667.7,341.9 
	672.8,343.9 677.9,346.2 682.4,349.3 686.7,353 690.6,357.2 694,362.6 696.6,368.6 698.3,375.4 699.4,383 699.4,391.8 698.6,401.7 
	696.6,412.8 696,420.4 601.4,420.4 607.6,394.9 664.3,394.9 664.3,394.9 664.6,391.8 664.3,388.7 664,385.8 663.7,383.3 
	662.6,380.7 661.8,378.5 660.6,376.5 659.2,374.8 657.8,373.4 656.1,372 654.1,370.8 652.1,369.7 650.1,368.8 647.9,368.6 
	645.6,368 643.3,367.7 643.3,367.7 641.1,368 638.5,368.3 636.3,368.8 634.3,369.7 632,370.5 630,372 628,373.4 626.3,374.8 
	624.6,376.5 623.2,378.5 621.8,380.7 620.7,382.7 619.5,385.3 618.4,387.8 617.8,390.4 617.3,393.2 612.2,419.8 "/>
<polygon fill="#FFFFFF" points="921,349.6 919.3,348.7 917.6,347.9 915.9,347 913.9,346.2 911.9,345.3 909.6,344.5 907.6,343.6 
	905.1,343.1 902.8,342.2 900.3,341.6 897.5,341.4 894.9,340.8 891.8,340.5 889,340.2 885.8,340.2 882.4,340.2 879.3,340.2 
	875.9,340.5 872.5,341.1 868.8,341.6 865.2,342.8 861.5,344.2 858.1,345.9 854.4,348.2 850.7,351 847.3,354.4 844.2,358.6 
	841.1,363.5 838.2,369.1 835.4,375.6 833.1,382.7 830.9,391.2 830.3,395.8 829.7,400.3 829.5,404.8 829.5,409.4 830,413.6 
	830.9,417.9 832,421.8 833.4,425.5 835.4,429.2 837.7,432.6 840.5,435.4 843.6,438.3 847,440.5 851,442.5 855.5,444.2 860.3,445.3 
	862,445.6 864,446.2 866.3,446.2 868.8,446.5 871.7,446.7 874.8,446.7 877.9,446.7 881.3,446.5 884.7,446.2 888.1,445.6 
	891.2,444.8 894.3,443.6 897.7,442.2 900.6,440.5 903.4,438.5 905.9,436 900.3,470.5 899.4,471.4 898.6,472 897.5,473.1 
	896.3,473.7 894.9,474.8 893.2,475.6 891.2,476.8 888.7,477.3 885.8,478.2 882.4,479 878.5,479.6 873.9,479.9 868.8,480.2 
	863.2,480.5 856.4,480.2 849.3,479.9 843.3,479.3 837.4,477.9 831.4,475.9 825.5,473.4 819.8,470.3 814.2,466.3 809.1,461.8 
	804.2,456.7 800,451 796.3,444.5 793.2,437.1 790.9,429.2 789.5,420.4 789,411.3 789.2,401.1 790.7,390.4 791.5,385.3 792.6,379.9 
	794,375.1 795.5,370.3 796.9,365.7 798.6,361.2 800.3,356.7 802,352.7 804,348.7 805.9,345 807.9,341.4 810.5,338 812.7,334.8 
	815.3,331.7 817.8,328.9 820.7,326.1 823.5,323.5 826.6,321 829.7,318.7 832.9,316.7 836.5,314.7 839.9,313 843.6,311.6 
	847.3,310.2 851.3,308.8 855.2,307.9 859.5,306.8 864,306.2 868.3,305.4 873.1,305.1 877.6,304.8 882.4,304.5 886.7,304.8 
	890.7,305.1 894.6,305.4 898.6,306 902,306.5 905.7,307.1 909.1,307.9 912.2,308.5 915,309.4 917.6,310.2 920.1,311.1 922.1,311.6 
	924.1,312.5 925.5,312.8 926.6,313.3 927.5,313.6 921,349.6 "/>
<polyline fill="none" stroke="#FFFFFF" stroke-width="0.216" stroke-miterlimit="2.6131" points="921,349.6 921,349.6 919.3,348.7 
	917.6,347.9 915.9,347 913.9,346.2 911.9,345.3 909.6,344.5 907.6,343.6 905.1,343.1 902.8,342.2 900.3,341.6 897.5,341.4 
	894.9,340.8 891.8,340.5 889,340.2 885.8,340.2 882.4,340.2 882.4,340.2 879.3,340.2 875.9,340.5 872.5,341.1 868.8,341.6 
	865.2,342.8 861.5,344.2 858.1,345.9 854.4,348.2 850.7,351 847.3,354.4 844.2,358.6 841.1,363.5 838.2,369.1 835.4,375.6 
	833.1,382.7 830.9,391.2 830.9,391.2 830.3,395.8 829.7,400.3 829.5,404.8 829.5,409.4 830,413.6 830.9,417.9 832,421.8 
	833.4,425.5 835.4,429.2 837.7,432.6 840.5,435.4 843.6,438.3 847,440.5 851,442.5 855.5,444.2 860.3,445.3 860.3,445.3 862,445.6 
	864,446.2 866.3,446.2 868.8,446.5 871.7,446.7 874.8,446.7 877.9,446.7 881.3,446.5 884.7,446.2 888.1,445.6 891.2,444.8 
	894.3,443.6 897.7,442.2 900.6,440.5 903.4,438.5 905.9,436 900.3,470.5 900.3,470.5 899.4,471.4 898.6,472 897.5,473.1 
	896.3,473.7 894.9,474.8 893.2,475.6 891.2,476.8 888.7,477.3 885.8,478.2 882.4,479 878.5,479.6 873.9,479.9 868.8,480.2 
	863.2,480.5 856.4,480.2 849.3,479.9 849.3,479.9 843.3,479.3 837.4,477.9 831.4,475.9 825.5,473.4 819.8,470.3 814.2,466.3 
	809.1,461.8 804.2,456.7 800,451 796.3,444.5 793.2,437.1 790.9,429.2 789.5,420.4 789,411.3 789.2,401.1 790.7,390.4 790.7,390.4 
	791.5,385.3 792.6,379.9 794,375.1 795.5,370.3 796.9,365.7 798.6,361.2 800.3,356.7 802,352.7 804,348.7 805.9,345 807.9,341.4 
	810.5,338 812.7,334.8 815.3,331.7 817.8,328.9 820.7,326.1 823.5,323.5 826.6,321 829.7,318.7 832.9,316.7 836.5,314.7 839.9,313 
	843.6,311.6 847.3,310.2 851.3,308.8 855.2,307.9 859.5,306.8 864,306.2 868.3,305.4 873.1,305.1 877.6,304.8 882.4,304.5 
	882.4,304.5 886.7,304.8 890.7,305.1 894.6,305.4 898.6,306 902,306.5 905.7,307.1 909.1,307.9 912.2,308.5 915,309.4 917.6,310.2 
	920.1,311.1 922.1,311.6 924.1,312.5 925.5,312.8 926.6,313.3 927.5,313.6 921,349.6 "/>
<polygon fill="#FFFFFF" points="1239.9,480.5 1204.3,480.5 1206.8,466 1206.8,464.9 1204.5,467.4 1202.6,469.7 1200.3,472 
	1198,473.7 1195.5,475.4 1193.2,476.8 1190.9,477.9 1188.4,479 1185.8,479.9 1183.6,480.7 1181,481.3 1178.5,481.6 1175.9,482.2 
	1173.4,482.4 1170.8,482.4 1168.3,482.4 1161.5,481.9 1155.2,480.5 1149.6,478.2 1144.5,475.4 1139.7,471.7 1135.7,467.1 
	1132,462.3 1128.9,456.9 1126.3,451 1124.1,445 1122.7,438.8 1121.8,432 1121.3,425.5 1121.5,418.7 1122.1,412.2 1123.2,405.4 
	1125.2,397.7 1127.5,390.7 1130.3,384.1 1133.4,377.9 1136.8,372 1140.8,366.9 1144.8,362 1149,357.8 1153.5,354.1 1158.4,350.7 
	1163.2,347.9 1168.3,345.9 1173.4,343.9 1178.5,342.8 1183.9,341.9 1189,341.6 1192.9,341.9 1196.6,342.2 1199.7,343.1 
	1202.8,343.9 1206,344.8 1208.5,346.2 1211.1,347.6 1213.3,349 1215.6,350.4 1217.6,352.1 1219.3,353.8 1220.7,355.5 1222.1,357.2 
	1223.2,358.9 1224.1,360.3 1224.9,362 1224.9,362 1234,311.1 1269.4,311.1 1239.9,480.5 "/>
<polyline fill="none" stroke="#FFFFFF" stroke-width="0.216" stroke-miterlimit="2.6131" points="1239.9,480.5 1204.3,480.5 
	1206.8,466 1206.8,464.9 1206.8,464.9 1204.5,467.4 1202.6,469.7 1200.3,472 1198,473.7 1195.5,475.4 1193.2,476.8 1190.9,477.9 
	1188.4,479 1185.8,479.9 1183.6,480.7 1181,481.3 1178.5,481.6 1175.9,482.2 1173.4,482.4 1170.8,482.4 1168.3,482.4 1168.3,482.4 
	1161.5,481.9 1155.2,480.5 1149.6,478.2 1144.5,475.4 1139.7,471.7 1135.7,467.1 1132,462.3 1128.9,456.9 1126.3,451 1124.1,445 
	1122.7,438.8 1121.8,432 1121.3,425.5 1121.5,418.7 1122.1,412.2 1123.2,405.4 1123.2,405.4 1125.2,397.7 1127.5,390.7 
	1130.3,384.1 1133.4,377.9 1136.8,372 1140.8,366.9 1144.8,362 1149,357.8 1153.5,354.1 1158.4,350.7 1163.2,347.9 1168.3,345.9 
	1173.4,343.9 1178.5,342.8 1183.9,341.9 1189,341.6 1189,341.6 1192.9,341.9 1196.6,342.2 1199.7,343.1 1202.8,343.9 1206,344.8 
	1208.5,346.2 1211.1,347.6 1213.3,349 1215.6,350.4 1217.6,352.1 1219.3,353.8 1220.7,355.5 1222.1,357.2 1223.2,358.9 
	1224.1,360.3 1224.9,362 1224.9,362 1234,311.1 1269.4,311.1 1239.9,480.5 "/>
<polygon fill="#FAB51D" points="1181.3,449.3 1185,449 1188.4,448.2 1191.5,447.3 1194.3,445.9 1197.2,444.2 1199.7,442.2 
	1202.3,440.2 1204.3,437.7 1206.2,435.1 1208.2,432.3 1209.9,429.5 1211.3,426.4 1212.5,423 1213.6,419.6 1214.5,416.2 1215,412.8 
	1215.9,409.1 1216.2,405.4 1216.2,401.7 1216.2,398 1215.6,394.6 1215,391.5 1214.2,388.4 1213.3,385.6 1211.9,382.7 1210.2,380.5 
	1208.8,378.2 1206.8,376.5 1204.5,375.1 1202.3,373.9 1199.7,373.4 1196.9,373.1 1193.5,373.4 1190.4,373.7 1187.3,374.8 
	1184.4,376.2 1181.6,377.9 1179,379.9 1176.8,382.2 1174.8,384.4 1172.8,387.3 1170.8,390.4 1169.1,393.5 1167.7,396.9 
	1166.6,400.3 1165.4,403.7 1164.6,407.7 1163.7,411.3 1163.2,417 1163.2,423.2 1164.3,429.5 1166,435.7 1168.6,441.1 1172,445.3 
	1176.2,448.2 1181.3,449.3 "/>
<polygon fill="#FFFFFF" points="385.8,451.8 380.4,480.5 347.9,480.5 348.7,475.1 349.6,470.5 349.9,466.9 350.4,464.9 348.7,466.9 
	346.5,469.1 344.2,470.8 341.4,472.8 338.2,474.5 335.1,476.2 331.7,477.6 328.3,479 324.4,480.2 320.7,481 317,481.9 313,482.4 
	309.3,482.7 305.4,482.7 302,482.4 298.3,481.9 293.8,480.7 289.8,479.3 286.1,477.6 282.7,475.6 279.9,473.7 277.3,471.4 
	275.3,468.8 273.6,466.3 271.9,463.5 270.5,460.6 269.7,457.8 268.8,455 268.3,452.1 268,449 267.7,446.2 267.7,443.3 268,438.3 
	268.8,433.4 270.2,428.9 271.9,424.7 273.9,420.4 276.2,416.7 279,413 282.1,409.9 285.3,406.8 288.9,404 292.6,401.7 296.6,399.4 
	300.8,397.7 305.1,396.3 309.3,395.2 313.9,394.3 314.2,394.3 314.7,394.3 315.9,394.1 317.3,394.1 318.7,393.8 320.7,393.5 
	322.4,393.2 324.6,393.2 326.9,392.9 329.2,392.6 331.4,392.4 333.4,392.1 335.7,392.1 337.4,391.8 339.4,391.8 340.8,391.8 
	343.6,391.8 346.7,391.8 349.6,392.1 352.4,392.1 354.9,392.1 356.6,392.4 358.1,392.4 358.3,392.4 358.6,391.5 359.5,389.2 
	360,386.4 360.3,384.1 359.8,381 358.6,378.5 357.2,376.2 354.9,374.2 352.4,372.5 349.9,371.4 346.7,370.5 343.3,370.5 
	339.7,370.3 335.7,370.3 331.7,370.3 327.8,370.3 323.5,370.5 319.3,370.8 315,371.4 311,372 307.1,372.2 303.4,373.1 300,373.7 
	296.9,374.2 294,375.1 291.8,375.9 290.1,376.8 288.7,377.6 297.7,346.2 300.6,345 303.4,344.2 306.5,343.1 309.6,342.5 
	312.7,341.9 316.1,341.4 319.5,340.8 322.9,340.5 326.6,340.2 330.3,340.2 334.3,339.9 338.2,339.9 342.5,339.9 346.7,339.9 
	351.3,340.2 355.8,340.2 359.5,340.5 363.2,341.4 367.4,342.2 371.4,343.3 375.3,344.8 379.3,346.7 383.3,349 387,351.3 
	390.1,354.1 392.9,357.2 395.5,360.9 397.4,364.6 398.9,368.8 399.7,373.4 399.7,378.2 398.9,383.3 385.8,451.8 "/>
<polyline fill="none" stroke="#FFFFFF" stroke-width="0.216" stroke-miterlimit="2.6131" points="385.8,451.8 380.4,480.5 
	347.9,480.5 347.9,480.5 348.7,475.1 349.6,470.5 349.9,466.9 350.4,464.9 350.4,464.9 348.7,466.9 346.5,469.1 344.2,470.8 
	341.4,472.8 338.2,474.5 335.1,476.2 331.7,477.6 328.3,479 324.4,480.2 320.7,481 317,481.9 313,482.4 309.3,482.7 305.4,482.7 
	302,482.4 298.3,481.9 298.3,481.9 293.8,480.7 289.8,479.3 286.1,477.6 282.7,475.6 279.9,473.7 277.3,471.4 275.3,468.8 
	273.6,466.3 271.9,463.5 270.5,460.6 269.7,457.8 268.8,455 268.3,452.1 268,449 267.7,446.2 267.7,443.3 267.7,443.3 268,438.3 
	268.8,433.4 270.2,428.9 271.9,424.7 273.9,420.4 276.2,416.7 279,413 282.1,409.9 285.3,406.8 288.9,404 292.6,401.7 296.6,399.4 
	300.8,397.7 305.1,396.3 309.3,395.2 313.9,394.3 313.9,394.3 314.2,394.3 314.7,394.3 315.9,394.1 317.3,394.1 318.7,393.8 
	320.7,393.5 322.4,393.2 324.6,393.2 326.9,392.9 329.2,392.6 331.4,392.4 333.4,392.1 335.7,392.1 337.4,391.8 339.4,391.8 
	340.8,391.8 340.8,391.8 343.6,391.8 346.7,391.8 349.6,392.1 352.4,392.1 354.9,392.1 356.6,392.4 358.1,392.4 358.3,392.4 
	358.3,392.4 358.6,391.5 359.5,389.2 360,386.4 360.3,384.1 360.3,384.1 359.8,381 358.6,378.5 357.2,376.2 354.9,374.2 
	352.4,372.5 349.9,371.4 346.7,370.5 343.3,370.5 343.3,370.5 339.7,370.3 335.7,370.3 331.7,370.3 327.8,370.3 323.5,370.5 
	319.3,370.8 315,371.4 311,372 307.1,372.2 303.4,373.1 300,373.7 296.9,374.2 294,375.1 291.8,375.9 290.1,376.8 288.7,377.6 
	297.7,346.2 297.7,346.2 300.6,345 303.4,344.2 306.5,343.1 309.6,342.5 312.7,341.9 316.1,341.4 319.5,340.8 322.9,340.5 
	326.6,340.2 330.3,340.2 334.3,339.9 338.2,339.9 342.5,339.9 346.7,339.9 351.3,340.2 355.8,340.2 355.8,340.2 359.5,340.5 
	363.2,341.4 367.4,342.2 371.4,343.3 375.3,344.8 379.3,346.7 383.3,349 387,351.3 390.1,354.1 392.9,357.2 395.5,360.9 
	397.4,364.6 398.9,368.8 399.7,373.4 399.7,378.2 398.9,383.3 385.8,451.8 "/>
<polygon fill="#E40520" points="354.4,417.9 354.4,417.3 353.8,416.7 353,416.2 351.8,415.9 350.4,415.9 348.7,415.6 346.7,415.6 
	344.8,415.6 342.8,415.9 340.5,415.9 338.5,416.2 336.3,416.4 334.3,416.7 332.6,417.3 331.2,417.6 329.7,417.9 328.6,418.1 
	327.8,418.7 326.3,419 324.9,419.8 323.2,420.4 321.5,421.5 319.5,422.4 317.8,423.5 316.1,424.7 314.4,426.1 313,427.5 
	311.6,429.2 310.2,430.9 309.3,432.6 308.5,434.6 308.2,436.8 307.9,441.1 308.5,444.8 309.9,447.3 311.6,449.3 313.6,450.4 
	315.9,451.3 317.8,451.6 319.8,451.8 323.8,451.6 327.2,451.3 330.6,450.7 333.7,449.9 336.3,449 338.8,447.9 340.8,446.7 
	342.8,445.3 344.5,443.9 346.2,442.5 347.3,441.1 348.4,439.4 349.3,438 350.1,436.3 350.7,434.9 351,433.4 352.1,429.8 353,425.5 
	353.8,421.3 354.4,417.9 "/>
<polygon fill="#FFFFFF" points="113,480.5 77.9,480.5 107.4,310.5 168.5,310.5 174.5,411.3 216.7,310.5 280.7,310.5 250.7,480.5 
	215.6,480.5 237.7,353.5 236.3,353.5 183.6,480.5 143.9,480.5 143.6,475.1 142.8,461.2 141.6,441.1 140.2,417.9 138.8,394.6 
	137.7,374.5 136.8,359.8 136.5,353.5 136.2,353.5 135.4,353.5 134.5,353.5 134.5,353.5 113,480.5 "/>
<polyline fill="none" stroke="#FFFFFF" stroke-width="0.216" stroke-miterlimit="2.6131" points="113,480.5 77.9,480.5 107.4,310.5 
	168.5,310.5 174.5,411.3 216.7,310.5 280.7,310.5 250.7,480.5 215.6,480.5 237.7,353.5 236.3,353.5 183.6,480.5 143.9,480.5 
	143.9,480.5 143.6,475.1 142.8,461.2 141.6,441.1 140.2,417.9 138.8,394.6 137.7,374.5 136.8,359.8 136.5,353.5 136.5,353.5 
	136.2,353.5 135.4,353.5 134.5,353.5 134.5,353.5 113,480.5 "/>
<polygon fill="#FFFFFF" points="1028.6,451.8 1023.5,480.5 990.9,480.5 991.2,475.1 991.2,470.5 991.2,467.1 991.5,465.4 
	989.8,467.4 987.8,469.4 985.6,471.1 983,473.1 980.2,474.8 977.1,476.2 973.9,477.9 970.5,479 967.1,480.2 963.5,481.3 
	959.8,481.9 956.4,482.4 952.4,482.7 949,482.7 945.3,482.4 941.9,481.9 937.1,480.7 933.1,479.3 929.5,477.6 926.1,475.6 
	923.2,473.7 920.7,471.4 918.7,468.8 917,466.3 915.3,463.5 914.2,460.6 913,457.8 912.5,455 911.9,452.1 911.6,449 911.3,446.2 
	911.3,443.3 911.6,438.3 912.5,433.4 913.6,428.9 915.3,424.7 917.3,420.4 919.5,416.7 922.4,413 925.2,409.9 928.6,406.8 
	932.3,404 936,401.7 939.9,399.4 943.9,397.7 948.2,396.3 952.4,395.2 956.9,394.3 957.2,394.3 957.8,394.3 958.6,394.1 
	960.1,394.1 961.8,393.8 963.5,393.5 965.4,393.2 967.4,393.2 969.7,392.9 972,392.6 974.2,392.4 976.5,392.1 978.5,392.1 
	980.5,391.8 982.2,391.8 983.6,391.8 986.7,391.8 989.8,391.8 992.9,392.1 995.8,392.1 998,392.1 1000.3,392.4 1001.4,392.4 
	1002,392.4 1002.3,391.5 1002.6,389.2 1002.8,386.4 1003.1,384.1 1002.6,381 1001.7,378.5 1000,376.2 998,374.2 995.8,372.5 
	992.9,371.4 990.1,370.5 987,370.5 983.3,370.3 979.6,370.3 975.4,370.3 971.4,370.3 967.1,370.5 962.9,370.8 958.6,371.4 
	954.7,372 950.7,372.2 947,373.1 943.6,373.7 940.5,374.2 937.7,375.1 935.4,375.9 933.7,376.8 932.3,377.6 941.4,346.2 944.2,345 
	947,344.2 950.1,343.1 953.3,342.5 956.4,341.9 959.8,341.4 962.9,340.8 966.6,340.5 970.3,340.2 973.9,340.2 977.6,339.9 
	981.6,339.9 985.6,339.9 989.8,339.9 994.3,340.2 998.6,340.2 1002.3,340.5 1006.2,341.4 1010.2,342.2 1014.4,343.3 1018.4,344.8 
	1022.4,346.7 1026.3,349 1029.7,351.3 1033.1,354.1 1036,357.2 1038.5,360.9 1040.5,364.6 1041.9,368.8 1043.1,373.4 1043.1,378.2 
	1042.2,383.3 1028.6,451.8 "/>
<polygon fill="#FFFFFF" points="1023.5,481.3 1024.1,480.7 1029.5,451.8 1028,451.6 1022.7,480.5 1023.5,479.6 1023.5,481.3 
	1024.1,481.3 1024.1,480.7 1023.5,481.3 "/>
<polygon fill="#FFFFFF" points="990.1,480.5 990.9,481.3 1023.5,481.3 1023.5,479.6 990.9,479.6 991.5,480.5 990.1,480.5 
	990.1,481.3 990.9,481.3 990.1,480.5 "/>
<polygon fill="#FFFFFF" points="992.1,466 990.9,464.9 990.4,467.1 990.4,470.5 990.4,475.1 990.1,480.5 991.5,480.5 991.8,475.1 
	992.1,470.5 992.1,467.1 992.1,466 990.9,464.9 992.1,466 "/>
<polygon fill="#FFFFFF" points="941.6,482.7 941.6,482.7 945.3,483 949,483.6 952.4,483.3 956.4,483 960.1,482.7 963.7,481.9 
	967.4,481 970.8,479.9 974.2,478.5 977.6,477.1 980.7,475.4 983.3,473.7 986.1,472 988.4,470 990.4,468 992.1,466 990.9,464.9 
	989.2,466.9 987.3,468.8 985,470.5 982.4,472.2 979.9,473.9 976.8,475.4 973.7,477.1 970.3,478.2 967.1,479.3 963.5,480.5 
	959.8,481 956.4,481.6 952.4,481.9 949,481.9 945.3,481.6 941.9,481 941.9,481 941.6,482.7 "/>
<polygon fill="#FFFFFF" points="910.5,443.3 910.5,443.3 910.5,446.2 910.8,449 911,452.1 911.6,455.2 912.5,458.1 913.3,460.9 
	914.4,464 916.1,466.6 918.1,469.4 920.1,472 922.7,474.2 925.8,476.5 929.2,478.5 932.9,480.2 937.1,481.3 941.6,482.7 941.9,481 
	937.4,479.9 933.4,478.5 929.7,476.8 926.3,475.1 923.8,473.1 921.5,470.8 919.3,468.3 917.6,466 916.1,463.2 915,460.3 
	913.9,457.8 913.3,455 912.7,451.8 912.5,449 912.2,446.2 912.2,443.3 912.2,443.3 910.5,443.3 "/>
<polygon fill="#FFFFFF" points="956.9,393.5 956.9,393.5 952.4,394.3 947.9,395.5 943.6,396.9 939.7,398.9 935.4,400.9 931.7,403.4 
	928,406.2 924.9,409.4 921.8,412.5 919,416.2 916.4,420.1 914.4,424.4 912.7,428.6 911.6,433.4 910.8,438.3 910.5,443.3 
	912.2,443.3 912.5,438.3 913,433.7 914.2,429.2 915.9,424.9 917.8,420.7 920.1,417.3 922.9,413.6 925.8,410.2 929.2,407.4 
	932.6,404.8 936.3,402.3 940.2,400.3 944.2,398.6 948.4,397.2 952.7,396 956.9,395.2 956.9,395.2 956.9,393.5 "/>
<polygon fill="#FFFFFF" points="983.6,390.9 983.6,390.9 982.2,390.9 980.5,391.2 978.5,391.2 976.5,391.5 974.2,391.5 972,391.8 
	969.7,392.1 967.4,392.4 965.4,392.6 963.5,392.9 961.8,392.9 960.1,393.2 958.6,393.2 957.8,393.5 957.2,393.5 956.9,393.5 
	956.9,395.2 957.2,395.2 958.1,394.9 958.6,394.9 960.1,394.6 961.8,394.6 963.5,394.3 965.4,394.1 967.4,393.8 969.7,393.5 
	972,393.2 974.2,393.2 976.5,392.9 978.5,392.9 980.5,392.6 982.2,392.6 983.6,392.6 983.6,392.6 983.6,390.9 "/>
<polygon fill="#FFFFFF" points="1001.1,392.4 1002,391.5 1001.4,391.5 1000.3,391.5 998,391.5 995.8,391.2 992.9,391.2 989.8,391.2 
	986.7,390.9 983.6,390.9 983.6,392.6 986.7,392.6 989.8,392.6 992.9,392.9 995.8,392.9 998,392.9 1000.3,393.2 1001.4,393.2 
	1002,393.2 1002.6,392.6 1002,393.2 1002.6,393.2 1002.6,392.6 1001.1,392.4 "/>
<polygon fill="#FFFFFF" points="1002.3,384.1 1002.3,384.1 1002.3,386.4 1001.7,389 1001.4,391.5 1001.1,392.4 1002.6,392.6 
	1002.8,391.5 1003.4,389.2 1003.7,386.4 1004,384.1 1004,384.1 1002.3,384.1 "/>
<polygon fill="#FFFFFF" points="987,371.1 987,371.4 990.1,371.4 992.6,372.2 995.2,373.4 997.5,375.1 999.2,376.8 1000.9,379 
	1002,381.3 1002.3,384.1 1004,384.1 1003.4,381 1002.3,378.2 1000.6,375.6 998.6,373.7 996,372 993.2,370.5 990.1,370 987,369.4 
	987,369.7 987,371.1 "/>
<polygon fill="#FFFFFF" points="931.4,377.3 932.6,378.2 934,377.6 935.7,376.5 938,375.9 940.8,375.1 943.9,374.5 947.3,373.7 
	951,373.1 954.7,372.5 958.6,372 962.9,371.7 967.1,371.4 971.4,371.1 975.4,371.1 979.6,371.1 983.3,371.1 987,371.1 987,369.7 
	983.3,369.4 979.6,369.1 975.4,369.1 971.4,369.4 967.1,369.7 962.9,370.3 958.6,370.5 954.7,371.1 950.7,371.7 947,372.2 
	943.6,372.8 940.5,373.4 937.7,374.2 935.1,375.1 933.1,375.9 931.7,376.8 932.9,377.6 931.4,377.3 "/>
<polygon fill="#FFFFFF" points="941.1,345.6 940.5,346.2 931.4,377.3 932.9,377.6 941.9,346.5 941.6,347 941.1,345.6 940.5,345.6 
	940.5,346.2 941.1,345.6 "/>
<polygon fill="#FFFFFF" points="998.6,339.7 998.6,339.7 994.3,339.4 989.8,339.1 985.6,339.1 981.6,339.1 977.6,339.1 973.9,339.4 
	970.3,339.7 966.6,339.9 962.9,339.9 959.5,340.5 956.4,341.1 953,341.6 949.9,342.5 946.7,343.3 943.9,344.5 941.1,345.6 
	941.6,347 944.5,345.9 947.3,344.8 950.1,343.9 953.3,343.3 956.7,342.8 959.8,342.2 962.9,341.6 966.6,341.4 970.3,341.1 
	973.9,341.1 977.6,341.1 981.6,341.1 985.6,341.1 989.8,341.1 994.3,341.1 998.6,341.1 998.6,341.1 998.6,339.7 "/>
<polygon fill="#FFFFFF" points="1043.1,383.6 1043.1,383.6 1043.6,378.2 1043.6,373.4 1042.8,368.8 1041.4,364.3 1039.4,360.3 
	1036.8,356.7 1033.7,353.5 1030.3,350.7 1026.6,348.2 1022.7,345.9 1018.7,344.2 1014.4,342.5 1010.2,341.4 1006.2,340.5 
	1002.3,339.9 998.6,339.7 998.6,341.1 1002.3,341.4 1006,341.9 1009.9,343.1 1014.2,344.2 1018.1,345.6 1022.1,347.6 1025.8,349.6 
	1029.5,352.1 1032.6,355 1035.4,357.8 1038,361.2 1039.9,364.9 1041.4,368.8 1042.2,373.4 1042.2,378.2 1041.6,383.3 1041.6,383.3 
	1043.1,383.6 "/>
<polygon fill="#FFFFFF" points="1029.5,451.8 1029.5,451.8 1043.1,383.6 1041.6,383.3 1028,451.6 1028,451.6 1029.5,451.8 "/>
<polygon fill="#FAB51D" points="997.5,417.9 997.2,417.3 996.6,416.4 995.8,416.2 994.3,415.9 992.9,415.6 991.2,415.6 989.2,415.6 
	987.3,415.6 985.3,415.9 983.3,416.2 981,416.4 979.3,416.7 977.3,417 975.6,417.3 973.9,417.6 972.5,417.9 971.7,418.1 
	970.5,418.4 969.4,419 968,419.3 966.3,420.1 964.6,421 962.9,421.8 961.2,423 959.5,424.1 957.8,425.5 956.4,426.9 955,428.6 
	953.8,430.6 953,432.6 952.1,434.6 951.8,436.8 951.6,441.1 952.1,444.8 953.3,447.3 955,449.3 956.7,450.4 958.9,451.3 
	961.2,451.6 963.5,451.8 967.4,451.6 970.8,451.3 974.2,450.7 977.3,449.6 980.2,448.7 982.4,447.6 985,446.2 987,444.8 
	988.7,443.3 990.4,441.6 991.8,439.9 992.9,438.3 993.8,436.8 994.6,435.1 994.9,433.7 995.5,432.3 996,428.6 996.6,424.9 
	997.2,421.3 997.5,417.9 "/>
<polygon fill="#FFFFFF" points="1264.3,462.9 1264.6,459.8 1265.4,456.4 1267.4,453.3 1269.4,450.4 1272.2,448.2 1275.4,446.7 
	1278.8,445.6 1282.4,445.3 1286.1,445.6 1289.2,446.7 1292.4,448.2 1295.2,450.4 1297.5,453.3 1299.2,456.4 1300.3,459.8 
	1300.6,462.9 1296.6,462.9 1296.6,460.3 1295.8,457.5 1294.3,455 1292.6,452.7 1290.7,451 1288.1,449.6 1285.3,448.7 1282.4,448.4 
	1279.3,448.7 1276.5,449.6 1273.9,451 1272,452.7 1270.3,455 1269.1,457.5 1268.3,460.3 1268,462.9 1264.3,462.9 "/>
<polygon fill="#FFFFFF" points="1275.9,462.9 1275.9,455 1283,455 1284.7,455.2 1286.1,455.5 1287,455.8 1287.8,456.4 1288.7,456.9 
	1289.2,457.8 1289.2,458.6 1289.5,459.8 1289.2,460.9 1289.2,461.8 1288.7,462.6 1288.4,462.9 1283,462.9 1283.6,462.6 
	1284.4,462.6 1285.3,462.3 1285.8,462 1286.4,461.5 1286.7,461.2 1287,460.6 1287,459.8 1286.7,458.9 1286.4,458.4 1286.1,458.4 
	1285.8,458.1 1285,457.8 1284.4,457.8 1283.9,457.8 1283,457.8 1279,457.8 1279,462.9 1275.9,462.9 "/>
<polygon fill="#FFFFFF" points="1264.3,462.9 1264,463.5 1264.6,467.4 1265.4,470.8 1267.4,473.9 1269.4,476.5 1272.2,478.8 
	1275.4,480.5 1278.8,481.3 1282.4,481.9 1286.1,481.3 1289.2,480.5 1292.4,478.8 1295.2,476.5 1297.5,473.9 1299.2,470.8 
	1300.3,467.4 1300.6,463.5 1300.6,462.9 1296.6,462.9 1296.6,463.5 1296.6,466.6 1295.8,469.4 1294.3,472 1292.6,474.2 
	1290.7,475.9 1288.1,477.3 1285.3,478.2 1282.4,478.5 1279.3,478.2 1276.5,477.3 1273.9,475.9 1272,474.2 1270.3,472 1269.1,469.4 
	1268.3,466.6 1268,463.5 1268,462.9 1264.3,462.9 "/>
<polygon fill="#FFFFFF" points="1275.9,462.9 1275.9,470.5 1279,470.5 1279,464.3 1282.4,464.3 1286.1,470.5 1289,470.5 1285,464.3 
	1285.8,464.3 1286.7,464 1287.5,463.7 1288.1,463.2 1288.4,462.9 1283,462.9 1282.4,462.9 1279,462.9 1279,462.9 1275.9,462.9 "/>
<path fill="none" stroke="#FFFFFF" stroke-width="0.216" stroke-miterlimit="2.6131" d="M1264,463.5L1264,463.5l0.3-3.7l1.1-3.4
	l1.7-3.1l2.3-2.8l2.8-2.3l3.1-1.4l3.4-1.1l3.7-0.3l0,0l3.7,0.3l3.4,1.1l3.1,1.4l2.8,2.3l2.3,2.8l1.7,3.1l1.1,3.4l0.3,3.7l0,0
	l-0.3,3.7l-1.1,3.4l-1.7,3.1l-2.3,2.5l-2.8,2.3l-3.1,1.7l-3.4,1.1l-3.7,0.3l0,0l-3.7-0.3l-3.4-1.1l-3.1-1.7l-2.8-2.3l-2.3-2.5
	l-1.7-3.1l-1.1-3.4L1264,463.5 M1279,470.5h-3.1V455h7.1l0,0h1.4l1.4,0.3l1.1,0.3l0.8,0.6l0.6,0.8l0.6,0.8l0.3,0.8v0.8l0,0v1.1
	l-0.3,0.8l-0.3,0.8l-0.6,0.6l-0.6,0.6l-0.8,0.3l-0.8,0.3h-0.8l4,6.5h-2.5l-4-6.5h-3.1v6.5 M1282.4,462.9L1282.4,462.9l1.1-0.3h0.8
	l0.8-0.3l0.6-0.3l0.6-0.3l0.3-0.3l0.3-0.6v-0.8l0,0v-0.6l-0.3-0.6l-0.3-0.3l-0.3-0.3h-0.6h-0.6h-0.6h-0.8h-4v5.1h2.8 M1282.4,478.5
	L1282.4,478.5l3.1-0.3l2.8-0.8l2.5-1.4l2-1.7l1.7-2.3l1.4-2.5l0.8-2.8l0.3-3.1l0,0l-0.3-3.1l-0.8-2.8l-1.4-2.5l-1.7-2.3l-2-1.7
	l-2.5-1.4l-2.8-0.8l-3.1-0.3l0,0l-3.1,0.3l-2.8,0.8l-2.5,1.4l-2,1.7l-1.7,2.3l-1.4,2.5l-0.8,2.8l-0.3,3.1l0,0l0.3,3.1l0.8,2.8
	l1.4,2.5l1.7,2.3l2,1.7l2.5,1.4l2.8,0.8L1282.4,478.5"/>
<polygon fill="#FFFFFF" points="1038.5,480.5 1075.1,480.5 1075.1,480.5 1088.1,406.8 1088.7,404 1089.2,401.1 1090.1,398.3 
	1091.2,395.5 1092.4,392.6 1094.1,389.8 1095.8,387.3 1097.7,384.7 1100,382.4 1102.6,380.5 1105.7,378.5 1109.1,377.1 
	1112.8,375.6 1117,374.8 1121.5,373.9 1126.6,373.7 1128.3,373.7 1129.5,373.7 1129.7,373.7 1129.7,373.7 1135.7,340.2 1132,340.5 
	1128.3,341.1 1125.2,341.6 1122.1,342.5 1119.3,343.6 1116.4,344.8 1113.9,346.2 1111.6,347.9 1109.1,349.6 1107.1,351.6 
	1104.8,353.5 1102.8,355.5 1100.9,357.8 1098.9,360.3 1096.9,362.6 1095.2,365.2 1099.2,341.6 1062.6,341.6 1038.5,480.5 
	1038.5,480.5 "/>
<polyline fill="none" stroke="#FFFFFF" stroke-width="0.216" stroke-miterlimit="2.6131" points="1038.5,480.5 1075.1,480.5 
	1075.1,480.5 1088.1,406.8 1088.1,406.8 1088.7,404 1089.2,401.1 1090.1,398.3 1091.2,395.5 1092.4,392.6 1094.1,389.8 
	1095.8,387.3 1097.7,384.7 1100,382.4 1102.6,380.5 1105.7,378.5 1109.1,377.1 1112.8,375.6 1117,374.8 1121.5,373.9 1126.6,373.7 
	1126.6,373.7 1128.3,373.7 1129.5,373.7 1129.7,373.7 1129.7,373.7 1135.7,340.2 1135.7,340.2 1132,340.5 1128.3,341.1 
	1125.2,341.6 1122.1,342.5 1119.3,343.6 1116.4,344.8 1113.9,346.2 1111.6,347.9 1109.1,349.6 1107.1,351.6 1104.8,353.5 
	1102.8,355.5 1100.9,357.8 1098.9,360.3 1096.9,362.6 1095.2,365.2 1099.2,341.6 1062.6,341.6 1038.5,480.5 1038.5,480.5 "/>
<polygon fill="#FFFFFF" points="695.5,480.5 732,480.5 732.6,480.5 745,406.8 745.6,404 746.2,401.1 746.7,398.6 747.6,396 
	748.7,393.2 750.1,390.9 751.6,388.7 753.3,386.4 755.5,384.4 757.8,382.4 760.6,381 763.7,379.6 767.4,378.2 771.4,377.3 
	775.9,376.5 780.7,376.2 781.3,376.2 781.9,376.5 782.4,376.5 783,376.5 783.6,376.5 784.1,376.8 784.7,376.8 784.7,376.8 
	785,376.5 785.3,374.8 785.8,372.5 786.4,369.7 787.3,366.3 788.1,362.6 789.5,358.9 790.7,355.2 791.5,353 792.9,350.4 
	794.3,347.9 795.5,345.9 796.6,343.9 797.4,342.2 798.3,341.4 798.6,341.1 798.3,341.1 797.7,340.8 797.2,340.8 796.3,340.5 
	795.5,340.5 794.3,340.5 793.5,340.2 792.6,340.2 788.4,340.5 785,341.1 781.6,341.6 778.5,342.5 775.4,343.3 772.8,344.8 
	770.3,346.2 768,347.6 765.7,349.3 763.7,351.3 761.8,353.3 759.8,355.2 757.8,357.5 756.1,360.1 754.1,362.6 752.1,365.2 
	756.7,341.6 719.5,341.6 695.5,480.5 695.5,480.5 "/>
<polyline fill="none" stroke="#FFFFFF" stroke-width="0.216" stroke-miterlimit="2.6131" points="695.5,480.5 732,480.5 
	732.6,480.5 745,406.8 745,406.8 745.6,404 746.2,401.1 746.7,398.6 747.6,396 748.7,393.2 750.1,390.9 751.6,388.7 753.3,386.4 
	755.5,384.4 757.8,382.4 760.6,381 763.7,379.6 767.4,378.2 771.4,377.3 775.9,376.5 780.7,376.2 780.7,376.2 781.3,376.2 
	781.9,376.5 782.4,376.5 783,376.5 783.6,376.5 784.1,376.8 784.7,376.8 784.7,376.8 784.7,376.8 785,376.5 785.3,374.8 
	785.8,372.5 786.4,369.7 787.3,366.3 788.1,362.6 789.5,358.9 790.7,355.2 790.7,355.2 791.5,353 792.9,350.4 794.3,347.9 
	795.5,345.9 796.6,343.9 797.4,342.2 798.3,341.4 798.6,341.1 798.6,341.1 798.3,341.1 797.7,340.8 797.2,340.8 796.3,340.5 
	795.5,340.5 794.3,340.5 793.5,340.2 792.6,340.2 792.6,340.2 788.4,340.5 785,341.1 781.6,341.6 778.5,342.5 775.4,343.3 
	772.8,344.8 770.3,346.2 768,347.6 765.7,349.3 763.7,351.3 761.8,353.3 759.8,355.2 757.8,357.5 756.1,360.1 754.1,362.6 
	752.1,365.2 756.7,341.6 719.5,341.6 695.5,480.5 695.5,480.5 "/>
<polygon fill="#FAB51D" points="1264.6,616.7 1264.6,616.4 1265.4,613 1267.4,609.9 1269.4,607.4 1272.2,605.4 1275.4,603.7 
	1278.8,602.8 1282.4,602.6 1286.1,602.8 1289.2,603.7 1292.4,605.4 1295.2,607.4 1297.5,609.9 1299.2,613 1300.3,616.4 
	1300.3,616.7 1296.6,616.7 1295.8,614.2 1294.3,611.6 1292.6,609.4 1290.7,607.7 1288.1,606.2 1285.3,605.4 1282.4,605.1 
	1279.3,605.4 1276.5,606.2 1273.9,607.7 1272,609.4 1270.3,611.6 1269.1,614.2 1268.3,616.7 1264.6,616.7 "/>
<polygon fill="#FAB51D" points="1275.9,616.7 1275.9,612.2 1283,612.2 1284.7,612.2 1286.1,612.5 1287,612.8 1287.8,613.3 
	1288.7,613.9 1289.2,614.7 1289.2,615.6 1289.5,616.7 1287,616.7 1287,616.2 1286.7,615.6 1286.4,615 1286.1,614.7 1285.8,614.5 
	1285,614.5 1284.4,614.2 1283.9,614.2 1283,614.2 1279,614.2 1279,616.7 1275.9,616.7 "/>
<polygon fill="#FAB51D" points="1264,619.6 1264.6,616.7 1268.3,616.7 1268.3,617 1268,619.6 1264,619.6 "/>
<polygon fill="#FAB51D" points="1275.9,619.6 1275.9,616.7 1279,616.7 1279,619.3 1282.4,619.3 1283.6,619.3 1284.4,619 
	1285.3,618.7 1285.8,618.4 1286.4,618.1 1286.7,617.9 1287,617 1287,616.7 1289.5,616.7 1289.5,616.7 1289.2,617.9 1289.2,618.4 
	1288.7,619.3 1288.1,619.6 1275.9,619.6 "/>
<polygon fill="#FAB51D" points="1296.6,619.6 1296.6,617 1296.6,616.7 1300.3,616.7 1300.6,619.6 1296.6,619.6 "/>
<polygon fill="#FAB51D" points="1264,619.6 1264,620.1 1264.6,623.8 1265.4,627.2 1267.4,630.3 1269.4,633.2 1272.2,635.4 
	1275.4,636.8 1278.8,638 1282.4,638.3 1286.1,638 1289.2,636.8 1292.4,635.4 1295.2,633.2 1297.5,630.3 1299.2,627.2 1300.3,623.8 
	1300.6,620.1 1300.6,619.6 1296.6,619.6 1296.6,620.1 1296.6,623.2 1295.8,626.1 1294.3,628.3 1292.6,630.6 1290.7,632.6 
	1288.1,634 1285.3,634.9 1282.4,635.1 1279.3,634.9 1276.5,634 1273.9,632.6 1272,630.6 1270.3,628.3 1269.1,626.1 1268.3,623.2 
	1268,620.1 1268,619.6 1264,619.6 "/>
<polygon fill="#FAB51D" points="1275.9,619.6 1275.9,627.2 1279,627.2 1279,620.7 1282.4,620.7 1286.1,627.2 1289,627.2 1285,620.7 
	1285.8,620.7 1286.7,620.4 1287.5,620.1 1288.1,619.6 1288.1,619.6 1275.9,619.6 "/>
</svg>
