<?xml version="1.0" encoding="utf-8"?>
<!-- Generator: Adobe Illustrator 18.0.0, SVG Export Plug-In . SVG Version: 6.00 Build 0)  -->
<!DOCTYPE svg PUBLIC "-//W3C//DTD SVG 1.1//EN" "http://www.w3.org/Graphics/SVG/1.1/DTD/svg11.dtd">
<svg version="1.1" id="Layer_1" xmlns="http://www.w3.org/2000/svg" xmlns:xlink="http://www.w3.org/1999/xlink" x="0px" y="0px"
	 viewBox="65 928.9 1366.2 233.8" enable-background="new 65 928.9 1366.2 233.8" xml:space="preserve">
<g>
	<polygon fill="#B2B2B2" points="979.4,1162.6 979.4,932.7 936.5,932.7 905.5,1108.3 874.6,932.7 831.7,932.7 831.7,1162.6 
		862.6,1162.6 862.6,981 894.2,1162.6 917.6,1162.6 948.4,981 948.4,1162.6 	"/>
	<polygon fill="#B2B2B2" points="603.3,1162.6 625.9,1162.6 625.9,932.7 594.3,932.7 594.3,1074.3 540,932.7 516.7,932.7 
		516.7,1162.6 547.5,1162.6 547.5,1009.6 	"/>
	<polygon fill="#B2B2B2" points="777.3,1162.6 777.3,962 815.8,962 815.8,932.7 707.4,932.7 707.4,962 745.8,962 745.8,1162.6 	"/>
	<rect x="658.3" y="932.7" fill="#B2B2B2" width="31" height="230"/>
	<polygon fill="#B2B2B2" points="1096.3,957.6 1096.3,932.7 1011.1,932.7 1011.1,1162.6 1096.3,1162.6 1096.3,1137.7 1042,1137.7 
		1042,1055.5 1081.2,1055.5 1081.2,1031.5 1042,1031.5 1042,957.6 	"/>
	<polygon fill="#B2B2B2" points="96,981 126.8,1162.6 150.2,1162.6 181.9,981 181.9,1162.6 212.7,1162.6 212.7,932.7 169.9,932.7 
		138.9,1108.3 107.9,932.7 65,932.7 65,1162.6 96,1162.6 	"/>
	<path fill="#B2B2B2" d="M460,1137.7l7.6,24.9h23.3v-114.5h-61.7v24h31v8.3c0,6.7,0,12.9-0.8,17.3c-0.8,5.2-1.5,10.6-2.3,15.9
		c-1.5,5.2-2.9,9.8-5.2,12.9c-2.3,3-5.2,5.9-9,8.3c-3.8,2.3-8.3,2.9-13.5,2.9c-4.4,0-8.3-0.8-11.3-2.3c-2.9-1.5-6.1-3.8-8.3-5.9
		c-2.3-2.9-3.8-5.9-5.2-9c-1.5-2.9-2.9-7.6-3.8-12.1c-0.8-4.4-1.5-9-1.5-13.5c0-4.5-0.8-9-0.8-15v-74.1c0-7.6,0.8-14.4,1.5-19.6
		c0.8-5.2,2.3-10.6,5.2-15c2.3-4.4,5.2-8.3,9.8-10.6c4.4-2.3,9.8-3.8,15.9-3.8c4.4,0,8.3,0.8,12.1,2.3c2.9,1.5,6.1,2.9,8.3,5.2
		c2.3,2.3,3.8,5.2,4.4,9c1.5,3.8,2.3,7.6,2.3,11.3c0.8,3.8,0.8,8.3,0.8,13.5v6.7h31c0-2.9,0-5.2,0-6.7c-0.8-10.6-1.5-20.4-3.8-28.7
		c-2.3-8.3-5.9-15.9-10.6-21.8c-4.4-5.9-10.6-10.6-18.1-14.4c-7.6-2.9-16.6-4.4-26.4-4.4c-42.1,0-63.3,27.9-63.3,84.5v58
		c0,11.3,0.8,21.8,1.5,30.1c0.8,9,2.9,17.3,6.1,24.9c2.9,8.3,6.7,14.4,11.3,19.6c4.4,5.2,10.6,9,18.1,12.1
		c7.6,2.9,15.9,4.4,25.6,4.4C443.4,1162.9,454,1155.7,460,1137.7z"/>
	<path fill="#B2B2B2" d="M1352.6,932.7l-46.8,230h31l12.1-57.3h39.2l12.1,57.3h31l-47.5-230H1352.6L1352.6,932.7z M1352.6,1080.3
		l15.9-98.8l15.9,98.8H1352.6z"/>
	<path fill="#B2B2B2" d="M1211.6,1144.5c9.8-12.1,14.4-31,14.4-55.9v-90.4c0-24-4.4-41.5-14.4-51.2c-9-9.8-25.6-15-48.3-15H1115
		v229.7h48.3C1185.9,1162.6,1202.4,1156.5,1211.6,1144.5z M1195.1,1080.3v5.2c0,6.7,0,12.1,0,15s0,7.6-0.8,12.1
		c-0.8,5.2-1.5,8.3-2.9,11.3c-1.5,2.3-2.9,4.4-5.2,7.6c-2.3,2.3-5.2,4.4-9,5.2s-8.3,1.5-12.9,1.5h-17.4V957.6h16.6
		c3.8,0,14.4,1.5,16.6,2.3c2.3,0.8,3.8,1.5,5.2,2.9c1.5,1.5,2.9,2.9,3.8,4.4c0.8,1.5,2.3,2.9,2.9,5.9c0.8,2.3,2.7,7,2.8,9.7
		C1195.2,988.7,1195.1,1080.3,1195.1,1080.3z"/>
	<path fill="#B2B2B2" d="M276.9,932.7l-46.8,229.9h31l12.1-57.3h39.2l11.3,57.3h31.1l-46.1-230L276.9,932.7L276.9,932.7L276.9,932.7
		z M276.9,1080.3l16-98.8l15.9,98.8H276.9z"/>
	<rect x="1255.3" y="932.7" fill="#B2B2B2" width="31" height="230"/>
</g>
</svg>
